<svg xmlns="http://www.w3.org/2000/svg" width="21" height="20" viewBox="0 0 21 20" fill="none">
  <path d="M3.70215 16.6666C3.36882 16.6666 3.07715 16.5416 2.82715 16.2916C2.57715 16.0416 2.45215 15.75 2.45215 15.4166V4.58331C2.45215 4.24998 2.57715 3.95831 2.82715 3.70831C3.07715 3.45831 3.36882 3.33331 3.70215 3.33331H17.8688C18.2021 3.33331 18.4938 3.45831 18.7438 3.70831C18.9938 3.95831 19.1188 4.24998 19.1188 4.58331V15.4166C19.1188 15.75 18.9938 16.0416 18.7438 16.2916C18.4938 16.5416 18.2021 16.6666 17.8688 16.6666H3.70215ZM17.8688 5.72915L11.1188 10.1458C11.0633 10.1736 11.0112 10.1979 10.9626 10.2187C10.914 10.2396 10.8549 10.25 10.7855 10.25C10.716 10.25 10.657 10.2396 10.6084 10.2187C10.5598 10.1979 10.5077 10.1736 10.4521 10.1458L3.70215 5.72915V15.4166H17.8688V5.72915ZM10.7855 9.12498L17.7855 4.58331H3.80632L10.7855 9.12498ZM3.70215 5.87498V5.05588V5.07112V4.58331V5.06248V5.04348V5.87498Z" fill="#749B3F"/>
</svg>