<svg xmlns="http://www.w3.org/2000/svg" width="21" height="20" viewBox="0 0 21 20" fill="none">
  <path d="M10.7877 9.79169C11.1892 9.79169 11.5323 9.64871 11.8171 9.36275C12.1018 9.07681 12.2441 8.73306 12.2441 8.3315C12.2441 7.92996 12.1012 7.58683 11.8152 7.3021C11.5293 7.01738 11.1855 6.87502 10.784 6.87502C10.3824 6.87502 10.0393 7.018 9.75456 7.30396C9.46983 7.5899 9.32747 7.93365 9.32747 8.33521C9.32747 8.73675 9.47045 9.07988 9.75641 9.3646C10.0424 9.64933 10.3861 9.79169 10.7877 9.79169ZM10.7858 16.6875C12.633 15.007 13.9976 13.4827 14.8796 12.1146C15.7615 10.7465 16.2025 9.54169 16.2025 8.50002C16.2025 6.86405 15.6796 5.5245 14.6339 4.48137C13.5882 3.43825 12.3055 2.91669 10.7858 2.91669C9.26613 2.91669 7.98343 3.43825 6.93772 4.48137C5.892 5.5245 5.36914 6.86405 5.36914 8.50002C5.36914 9.54169 5.82053 10.7465 6.72331 12.1146C7.62608 13.4827 8.98025 15.007 10.7858 16.6875ZM10.7962 18.0834C10.7059 18.0834 10.6191 18.0695 10.5358 18.0417C10.4525 18.0139 10.3761 17.9722 10.3066 17.9167C8.2372 16.0972 6.68858 14.4105 5.66081 12.8564C4.63303 11.3023 4.11914 9.85017 4.11914 8.50002C4.11914 6.41669 4.78928 4.75697 6.12956 3.52085C7.46983 2.28474 9.02192 1.66669 10.7858 1.66669C12.5497 1.66669 14.1018 2.28474 15.4421 3.52085C16.7823 4.75697 17.4525 6.41669 17.4525 8.50002C17.4525 9.84724 16.9386 11.2986 15.9108 12.8542C14.883 14.4097 13.3344 16.0972 11.265 17.9167C11.1955 17.9722 11.1226 18.0139 11.0462 18.0417C10.9698 18.0695 10.8865 18.0834 10.7962 18.0834Z" fill="#749B3F"/>
</svg>