<svg xmlns="http://www.w3.org/2000/svg" width="28" height="28" viewBox="0 0 28 28" fill="none">
  <mask id="mask0_3594_10199" style="mask-type:luminance" maskUnits="userSpaceOnUse" x="1" y="0" width="11" height="17">
    <path d="M11.3647 1.94617L10.4344 16.5881L1.99061 15.0017L2.921 0.359848L11.3647 1.94617Z" fill="white"/>
  </mask>
  <g mask="url(#mask0_3594_10199)">
    <mask id="mask1_3594_10199" style="mask-type:luminance" maskUnits="userSpaceOnUse" x="-3" y="1" width="35" height="28">
      <path d="M6.92869 1.81479L31.0315 18.4138L21.9697 28.3125L-2.13317 11.7134L6.92869 1.81479Z" fill="white"/>
    </mask>
    <g mask="url(#mask1_3594_10199)">
      <mask id="mask2_3594_10199" style="mask-type:luminance" maskUnits="userSpaceOnUse" x="-3" y="2" width="35" height="27">
        <path d="M6.80904 2.1011L31.1072 19.0112L22.0903 28.0263L-2.2079 11.1162L6.80904 2.1011Z" fill="white"/>
      </mask>
      <g mask="url(#mask2_3594_10199)">
        <path d="M6.66815 12.3606C6.47304 12.4986 6.22697 12.6239 6.35508 12.9644C6.41459 13.1199 6.26055 13.1604 6.17354 13.2232C5.71303 13.5561 5.25258 13.8875 4.8277 14.2551C4.61841 14.4375 4.37327 14.3395 4.10234 14.1673C3.76933 13.9523 3.4688 13.6985 3.2188 13.4179C2.5569 12.6867 2.34593 11.9567 2.17467 11.2122C2.11625 10.9799 2.18441 10.7742 2.35842 10.6486C3.09121 10.104 3.22672 9.21045 3.64384 8.47978C4.06096 7.74912 4.43957 7.00337 4.90676 6.30712C5.49892 5.42595 6.02874 4.50814 6.51027 3.56277C6.73098 3.10198 7.04224 2.69288 7.43337 2.34475C7.73201 2.09238 8.03518 2.1816 8.46242 2.4085C9.47017 2.94129 9.99252 3.71109 10.3514 4.49954C10.5195 4.86977 10.9596 5.38572 10.7382 5.61163C10.4888 5.86824 10.4646 6.20723 10.2867 6.47811C9.68049 7.4006 9.08826 8.33371 8.52628 9.28251C8.34912 9.58512 8.09959 9.84484 7.89861 10.1259C7.52715 10.6471 7.38578 11.2821 7.04883 11.8155C6.94229 12.003 6.76135 12.1469 6.66815 12.3606Z" fill="#FF6A1A"/>
      </g>
    </g>
  </g>
  <mask id="mask3_3594_10199" style="mask-type:luminance" maskUnits="userSpaceOnUse" x="10" y="7" width="12" height="14">
    <path d="M21.5845 9.19141L20.8736 20.4894L10.2933 18.4803L11.0042 7.18231L21.5845 9.19141Z" fill="white"/>
  </mask>
  <g mask="url(#mask3_3594_10199)">
    <mask id="mask4_3594_10199" style="mask-type:luminance" maskUnits="userSpaceOnUse" x="-3" y="1" width="35" height="28">
      <path d="M6.92869 1.81418L31.0315 18.4132L21.9697 28.3119L-2.13317 11.7128L6.92869 1.81418Z" fill="white"/>
    </mask>
    <g mask="url(#mask4_3594_10199)">
      <mask id="mask5_3594_10199" style="mask-type:luminance" maskUnits="userSpaceOnUse" x="-3" y="2" width="35" height="27">
        <path d="M6.80904 2.10049L31.1072 19.0106L22.0903 28.0257L-2.2079 11.1156L6.80904 2.10049Z" fill="white"/>
      </mask>
      <g mask="url(#mask5_3594_10199)">
        <path d="M12.9537 17.9161C12.2498 17.8077 11.8968 17.4507 11.622 16.9091C11.2061 16.0948 11.0005 15.3039 10.805 14.5058C10.7468 14.261 10.9207 14.0801 11.2102 14.0845C11.8014 14.0808 11.8088 13.3924 12.5587 13.6179C12.7035 13.1523 13.2727 13.0682 13.7401 12.9372C14.2906 12.784 14.5609 12.4048 14.9464 12.1282C15.8747 11.4614 16.8103 10.8057 17.7932 10.1892C17.9096 10.1209 18.0185 10.0445 18.1179 9.96075C18.5329 9.58673 18.724 9.60289 19.3671 10.0885C19.4699 10.1578 19.5644 10.2379 19.6449 10.3255C20.2081 11.035 20.7654 11.7472 21.3167 12.4605C21.4022 12.5689 21.5152 12.7681 21.3456 12.7526C20.7567 12.6994 20.8504 13.1733 20.6031 13.3749C19.8389 14.004 18.819 14.3805 17.9516 14.9033C17.4536 15.2036 16.8398 15.4175 16.3898 15.7426C15.6794 16.2521 14.7327 16.4721 13.9428 16.8736C13.4634 17.1028 13.1215 17.4633 12.9537 17.9161Z" fill="#FF6A1A"/>
      </g>
    </g>
  </g>
  <mask id="mask6_3594_10199" style="mask-type:luminance" maskUnits="userSpaceOnUse" x="15" y="19" width="11" height="9">
    <path d="M25.2783 21.3615L24.8906 27.3693L15.0327 25.5506L15.4204 19.5427L25.2783 21.3615Z" fill="white"/>
  </mask>
  <g mask="url(#mask6_3594_10199)">
    <mask id="mask7_3594_10199" style="mask-type:luminance" maskUnits="userSpaceOnUse" x="-3" y="1" width="35" height="28">
      <path d="M6.92869 1.81455L31.0315 18.4136L21.9697 28.3122L-2.13317 11.7132L6.92869 1.81455Z" fill="white"/>
    </mask>
    <g mask="url(#mask7_3594_10199)">
      <mask id="mask8_3594_10199" style="mask-type:luminance" maskUnits="userSpaceOnUse" x="-3" y="2" width="35" height="27">
        <path d="M6.80904 2.10086L31.1072 19.0109L22.0903 28.026L-2.2079 11.116L6.80904 2.10086Z" fill="white"/>
      </mask>
      <g mask="url(#mask8_3594_10199)">
        <path d="M24.325 24.6424C23.9134 24.6913 24.1652 25.2054 23.6417 25.1467C23.2849 25.1122 22.9312 25.0922 22.5844 25.0876C21.586 25.058 20.5941 25.0532 19.6133 25.0528C18.8701 25.0535 18.1424 25.087 17.4284 25.1513C16.648 25.2211 16.3217 25.0981 15.7937 24.4785C15.2656 23.8603 15.2469 23.7736 15.7699 23.4333C16.2152 23.143 16.495 22.7579 16.6919 22.3301C16.7716 22.1554 16.9538 22.1308 17.1525 22.116C19.0732 21.982 20.9956 21.8511 23.0066 21.9251C23.3851 21.9395 23.7823 22.0393 24.1697 22.0643C24.8015 22.1058 25.2291 22.4901 25.168 22.9584C25.085 23.6156 24.7486 24.1652 24.325 24.6424Z" fill="#FF6A1A"/>
      </g>
    </g>
  </g>
</svg>