<svg xmlns="http://www.w3.org/2000/svg" width="125" height="32" viewBox="0 0 125 32" fill="none">
  <circle cx="16.7856" cy="16" r="16" fill="#212337"/>
  <path d="M23.8796 12.5521C23.4007 12.7649 22.8952 12.8979 22.3631 12.9777C22.8952 12.6585 23.3209 12.153 23.5071 11.5411C23.0016 11.8337 22.4429 12.0466 21.831 12.1796C21.3521 11.6741 20.6604 11.3549 19.9155 11.3549C18.4788 11.3549 17.3082 12.5255 17.3082 13.9621C17.3082 14.1749 17.3348 14.3612 17.3881 14.5474C15.2331 14.441 13.291 13.4034 11.9873 11.8071C11.7745 12.2062 11.6415 12.6319 11.6415 13.1108C11.6415 14.0153 12.0937 14.8135 12.8121 15.2923C12.3864 15.2657 11.9873 15.1593 11.6149 14.9731V14.9997C11.6149 16.2767 12.5194 17.3409 13.7166 17.5803C13.5038 17.6335 13.2643 17.6601 13.0249 17.6601C12.8653 17.6601 12.679 17.6335 12.5194 17.6069C12.8653 18.6445 13.823 19.416 14.967 19.416C14.0625 20.1078 12.9451 20.5334 11.7213 20.5334C11.5084 20.5334 11.2956 20.5334 11.1094 20.5068C12.28 21.2518 13.6368 21.6774 15.1267 21.6774C19.9421 21.6774 22.576 17.6868 22.576 14.2282C22.576 14.1217 22.576 13.9887 22.576 13.8823C23.0814 13.5364 23.5337 13.0842 23.8796 12.5521Z" fill="white"/>
  <circle cx="62.5" cy="16" r="16" fill="#212337"/>
  <path d="M61.024 23.2043V16.8574H58.8882V14.3839H61.024V12.5598C61.024 10.4429 62.317 9.29016 64.2054 9.29016C65.11 9.29016 65.8874 9.35751 66.114 9.38761V11.5999L64.8043 11.6005C63.7772 11.6005 63.5784 12.0885 63.5784 12.8047V14.3839H66.0278L65.7088 16.8574H63.5784V23.2043H61.024Z" fill="white"/>
  <circle cx="108.214" cy="16" r="16" fill="#212337"/>
  <path d="M108.215 9.65393C110.282 9.65393 110.527 9.66168 111.344 9.69891C111.835 9.70492 112.321 9.79507 112.781 9.96545C113.115 10.0942 113.419 10.2915 113.672 10.5446C113.925 10.7977 114.122 11.101 114.251 11.4349C114.421 11.8955 114.511 12.3818 114.517 12.8727C114.554 13.6893 114.562 13.9341 114.562 16.0012C114.562 18.0683 114.555 18.3131 114.517 19.1297C114.511 19.6207 114.421 20.107 114.251 20.5675C114.122 20.9014 113.925 21.2047 113.672 21.4578C113.419 21.7109 113.115 21.9082 112.781 22.037C112.321 22.2074 111.835 22.2975 111.344 22.3035C110.527 22.3404 110.283 22.3485 108.215 22.3485C106.148 22.3485 105.903 22.3408 105.087 22.3035C104.596 22.2975 104.109 22.2074 103.649 22.037C103.315 21.9082 103.012 21.7109 102.758 21.4578C102.505 21.2047 102.308 20.9014 102.179 20.5675C102.009 20.107 101.919 19.6207 101.913 19.1297C101.876 18.3131 101.868 18.0683 101.868 16.0012C101.868 13.9341 101.876 13.6893 101.913 12.8727C101.919 12.3818 102.009 11.8955 102.179 11.4349C102.308 11.101 102.505 10.7977 102.758 10.5446C103.012 10.2915 103.315 10.0942 103.649 9.96545C104.109 9.79507 104.596 9.70492 105.087 9.69891C105.903 9.66204 106.148 9.65393 108.215 9.65393ZM108.215 8.25891C106.114 8.25891 105.849 8.26776 105.023 8.30536C104.381 8.31814 103.745 8.43981 103.143 8.66518C102.627 8.85971 102.159 9.16456 101.773 9.55845C101.378 9.94495 101.073 10.4129 100.879 10.9295C100.653 11.5314 100.532 12.1671 100.519 12.8097C100.482 13.6348 100.473 13.8995 100.473 16.0008C100.473 18.1022 100.482 18.3669 100.52 19.1927C100.532 19.8353 100.654 20.471 100.879 21.0729C101.074 21.5895 101.379 22.0574 101.773 22.444C102.159 22.838 102.627 23.1428 103.144 23.3373C103.746 23.5626 104.381 23.6843 105.024 23.6971C105.85 23.7339 106.113 23.7435 108.216 23.7435C110.318 23.7435 110.582 23.7347 111.408 23.6971C112.05 23.6843 112.686 23.5626 113.288 23.3373C113.802 23.138 114.269 22.8336 114.659 22.4435C115.048 22.0535 115.353 21.5864 115.551 21.0722C115.777 20.4703 115.899 19.8346 115.911 19.192C115.948 18.3669 115.957 18.1022 115.957 16.0008C115.957 13.8995 115.948 13.6348 115.911 12.809C115.898 12.1664 115.776 11.5307 115.551 10.9288C115.356 10.4122 115.051 9.94428 114.657 9.55771C114.271 9.16373 113.803 8.85888 113.286 8.66444C112.685 8.43907 112.049 8.31741 111.406 8.30463C110.581 8.26776 110.316 8.25891 108.215 8.25891Z" fill="white"/>
  <path d="M108.217 12.0266C107.431 12.0266 106.662 12.2598 106.008 12.6966C105.354 13.1335 104.845 13.7544 104.544 14.4809C104.243 15.2073 104.164 16.0067 104.318 16.7779C104.471 17.5491 104.85 18.2575 105.406 18.8135C105.962 19.3695 106.67 19.7482 107.441 19.9016C108.212 20.055 109.012 19.9762 109.738 19.6753C110.465 19.3744 111.086 18.8648 111.523 18.211C111.959 17.5572 112.193 16.7886 112.193 16.0023C112.193 14.9479 111.774 13.9366 111.028 13.1911C110.283 12.4455 109.271 12.0266 108.217 12.0266ZM108.217 18.5829C107.706 18.5829 107.208 18.4316 106.783 18.148C106.359 17.8644 106.028 17.4614 105.833 16.9898C105.637 16.5183 105.586 15.9994 105.686 15.4988C105.785 14.9982 106.031 14.5384 106.392 14.1775C106.753 13.8166 107.213 13.5708 107.713 13.4712C108.214 13.3716 108.733 13.4228 109.204 13.6181C109.676 13.8134 110.079 14.1442 110.363 14.5685C110.646 14.9929 110.798 15.4919 110.798 16.0023C110.798 16.6867 110.526 17.3431 110.042 17.8271C109.558 18.311 108.901 18.5829 108.217 18.5829Z" fill="white"/>
  <path d="M112.348 12.7976C112.862 12.7976 113.277 12.3817 113.277 11.8686C113.277 11.3555 112.862 10.9396 112.348 10.9396C111.835 10.9396 111.419 11.3555 111.419 11.8686C111.419 12.3817 111.835 12.7976 112.348 12.7976Z" fill="white"/>
</svg>