<svg xmlns="http://www.w3.org/2000/svg" width="14" height="13" viewBox="0 0 14 13" fill="none">
  <path d="M7.00019 10.8727L3.75832 12.8277C3.63748 12.8982 3.51644 12.9279 3.39519 12.9166C3.27394 12.9054 3.16422 12.8645 3.06602 12.7941C2.96769 12.7236 2.89179 12.6314 2.83832 12.5176C2.78498 12.4039 2.77644 12.2781 2.81269 12.1402L3.67332 8.45911L0.811232 5.98161C0.704288 5.88869 0.636163 5.78105 0.606857 5.65869C0.577413 5.53633 0.585121 5.41744 0.629982 5.30202C0.674843 5.18675 0.739496 5.09251 0.82394 5.01932C0.908385 4.94612 1.0238 4.89827 1.17019 4.87577L4.94727 4.54577L6.41373 1.06973C6.46707 0.940427 6.54797 0.844802 6.65644 0.782857C6.76491 0.720913 6.8795 0.689941 7.00019 0.689941C7.12089 0.689941 7.23547 0.720913 7.34394 0.782857C7.45241 0.844802 7.53332 0.940427 7.58665 1.06973L9.05311 4.54577L12.8302 4.87577C12.9766 4.89827 13.092 4.94612 13.1764 5.01932C13.2609 5.09251 13.3255 5.18675 13.3704 5.30202C13.4153 5.41744 13.423 5.53633 13.3935 5.65869C13.3642 5.78105 13.2961 5.88869 13.1891 5.98161L10.3271 8.45911L11.1877 12.1402C11.2239 12.2781 11.2154 12.4039 11.1621 12.5176C11.1086 12.6314 11.0327 12.7236 10.9344 12.7941C10.8362 12.8645 10.7264 12.9054 10.6052 12.9166C10.4839 12.9279 10.3629 12.8982 10.2421 12.8277L7.00019 10.8727Z" fill="#FFB848"/>
</svg>