<svg xmlns="http://www.w3.org/2000/svg" width="21" height="20" viewBox="0 0 21 20" fill="none">
  <path d="M17.3481 17.5C15.6537 17.5 13.9697 17.0833 12.2961 16.25C10.6225 15.4167 9.11898 14.3333 7.78564 13C6.45231 11.6667 5.36898 10.1632 4.53564 8.48958C3.70231 6.81597 3.28564 5.13194 3.28564 3.4375C3.28564 3.16964 3.37493 2.94642 3.5535 2.76785C3.73207 2.58928 3.95528 2.5 4.22314 2.5H7.13981C7.32885 2.5 7.49764 2.56597 7.64619 2.69792C7.79471 2.82986 7.88981 3.00694 7.93148 3.22917L8.49398 5.85417C8.52176 6.04861 8.51828 6.22569 8.48356 6.38542C8.44884 6.54514 8.37592 6.68056 8.26481 6.79167L6.18148 8.89583C6.95926 10.1875 7.83078 11.3125 8.79606 12.2708C9.76134 13.2292 10.8551 14.0417 12.0773 14.7083L14.0565 12.6667C14.1954 12.5139 14.3551 12.4062 14.5356 12.3438C14.7162 12.2812 14.8968 12.2708 15.0773 12.3125L17.5565 12.8542C17.7691 12.901 17.9438 13.0065 18.0806 13.1706C18.2173 13.3346 18.2856 13.5278 18.2856 13.75V16.5625C18.2856 16.8304 18.1964 17.0536 18.0178 17.2321C17.8392 17.4107 17.616 17.5 17.3481 17.5ZM5.55648 7.75L7.24398 6.04167L6.76481 3.75H4.53564C4.53564 4.29167 4.61898 4.88542 4.78564 5.53125C4.95231 6.17708 5.20926 6.91667 5.55648 7.75ZM17.0356 16.25V14.0208L14.8898 13.5833L13.244 15.3125C13.8134 15.5764 14.4315 15.7917 15.0981 15.9583C15.7648 16.125 16.4106 16.2222 17.0356 16.25Z" fill="#749B3F"/>
</svg>