<svg xmlns="http://www.w3.org/2000/svg" width="70" height="48" viewBox="0 0 70 48" fill="none">
  <rect x="0.413793" y="0.413793" width="68.6897" height="47.1724" rx="2.89655" fill="white" stroke="#F3F3F3" stroke-width="0.827586"/>
  <path d="M30.8656 32.92H26.2373L29.1322 16.1191H33.7602L30.8656 32.92Z" fill="#15195A"/>
  <path d="M47.6428 16.5297C46.7299 16.1898 45.282 15.8145 43.4916 15.8145C38.9211 15.8145 35.7025 18.1021 35.6828 21.3728C35.6448 23.7859 37.9872 25.1261 39.7391 25.9307C41.5297 26.7529 42.1384 27.2896 42.1384 28.0224C42.1201 29.148 40.6914 29.6668 39.3589 29.6668C37.5111 29.6668 36.521 29.3993 35.0164 28.7731L34.4069 28.5047L33.7593 32.2761C34.8448 32.7403 36.8447 33.1522 38.9211 33.1702C43.7774 33.1702 46.939 30.918 46.9764 27.4326C46.9949 25.52 45.7581 24.0545 43.0915 22.857C41.4727 22.0883 40.4814 21.5699 40.4814 20.7834C40.5004 20.0684 41.3199 19.336 43.1472 19.336C44.6518 19.3001 45.7573 19.6396 46.5948 19.9793L47.0134 20.1577L47.6428 16.5297Z" fill="#15195A"/>
  <path fillRule="evenodd" clipRule="evenodd" d="M55.928 16.1191H59.508L63.2418 32.9198H58.9565C58.9565 32.9198 58.5371 30.9894 58.4043 30.3995H52.4619C52.2901 30.8461 51.4906 32.9198 51.4906 32.9198H46.6343L53.509 17.5131C53.9853 16.4227 54.824 16.1191 55.928 16.1191ZM55.6429 22.267C55.6429 22.267 54.1763 26.0026 53.7951 26.9678H57.6421C57.4518 26.1278 56.5753 22.1062 56.5753 22.1062L56.2519 20.6585C56.1157 21.0313 55.9187 21.5438 55.7858 21.8895C55.6958 22.1239 55.6352 22.2815 55.6429 22.267Z" fill="#15195A"/>
  <path fillRule="evenodd" clipRule="evenodd" d="M17.8387 27.5757L22.3713 16.1191H27.2653L19.9905 32.9022H15.0962L10.9711 18.3041C9.54775 17.523 7.92324 16.8948 6.10693 16.4588L6.18311 16.1193H13.6296C14.6389 16.1547 15.4579 16.4586 15.7244 17.5316L17.3421 25.248C17.3425 25.2494 17.343 25.2508 17.3434 25.2522L17.8387 27.5757Z" fill="#15195A"/>
</svg>